<mxfile host="Electron" modified="2023-05-19T04:02:17.140Z" agent="Mozilla/5.0 (Windows NT 10.0; Win64; x64) AppleWebKit/537.36 (KHTML, like Gecko) draw.io/21.2.8 Chrome/112.0.5615.165 Electron/24.2.0 Safari/537.36" etag="-xxiR0WbQXZB0-sBoc95" version="21.2.8" type="device">
  <diagram id="p1WFtV5cTaJLbCV86L4F" name="Page-1">
    <mxGraphModel dx="1518" dy="740" grid="1" gridSize="10" guides="1" tooltips="1" connect="1" arrows="1" fold="1" page="1" pageScale="1" pageWidth="1169" pageHeight="827" math="0" shadow="0">
      <root>
        <mxCell id="0" />
        <mxCell id="1" parent="0" />
        <mxCell id="QQ55KDb4OGq9LbFW0DJH-15" value="alt" style="shape=umlFrame;whiteSpace=wrap;html=1;width=50;height=30;" parent="1" vertex="1">
          <mxGeometry x="220" y="350" width="700" height="330" as="geometry" />
        </mxCell>
        <mxCell id="rrxrWV5JKAd1Jxnc8wNa-6" value=":user.php" style="shape=umlLifeline;perimeter=lifelinePerimeter;whiteSpace=wrap;html=1;container=0;collapsible=0;recursiveResize=0;outlineConnect=0;" parent="1" vertex="1">
          <mxGeometry x="801.25" y="150" width="156.72" height="530" as="geometry" />
        </mxCell>
        <mxCell id="BHGGA8FH1MstIcf6RSHf-21" value="click &quot;Edit&quot;" style="html=1;verticalAlign=bottom;endArrow=block;rounded=0;elbow=vertical;" parent="1" edge="1">
          <mxGeometry x="-0.0586" y="3" width="80" relative="1" as="geometry">
            <mxPoint x="200" y="233" as="sourcePoint" />
            <mxPoint x="380" y="233" as="targetPoint" />
            <mxPoint as="offset" />
          </mxGeometry>
        </mxCell>
        <mxCell id="mJ_MDuSwQOCXob1QKFZ1-4" value="" style="shape=umlLifeline;participant=umlActor;perimeter=lifelinePerimeter;whiteSpace=wrap;html=1;container=0;collapsible=0;recursiveResize=0;verticalAlign=top;spacingTop=36;outlineConnect=0;fontFamily=Helvetica;fontSize=12;fontColor=default;align=center;strokeColor=default;fillColor=default;size=50;" parent="1" vertex="1">
          <mxGeometry x="145.1" y="185.14" width="46.09" height="494.86" as="geometry" />
        </mxCell>
        <mxCell id="BHGGA8FH1MstIcf6RSHf-15" value="Organization" style="text;html=1;align=center;verticalAlign=middle;resizable=1;points=[];autosize=1;strokeColor=none;fillColor=none;container=0;movable=1;rotatable=1;deletable=1;editable=1;connectable=1;locked=0;" parent="1" vertex="1">
          <mxGeometry x="130.1" y="150" width="90" height="30" as="geometry" />
        </mxCell>
        <mxCell id="OlgEAX7LOhgStRy0H8mc-7" value=":accountsettings.php" style="shape=umlLifeline;perimeter=lifelinePerimeter;whiteSpace=wrap;html=1;container=0;collapsible=0;recursiveResize=0;outlineConnect=0;" parent="1" vertex="1">
          <mxGeometry x="290" y="150" width="199.75" height="530" as="geometry" />
        </mxCell>
        <mxCell id="rrxrWV5JKAd1Jxnc8wNa-36" value="" style="html=1;points=[];perimeter=orthogonalPerimeter;container=0;" parent="1" vertex="1">
          <mxGeometry x="382.19" y="300" width="15.37" height="30" as="geometry" />
        </mxCell>
        <mxCell id="rrxrWV5JKAd1Jxnc8wNa-38" value="redirect accountsettings.php" style="html=1;verticalAlign=bottom;endArrow=open;dashed=1;endSize=8;rounded=0;elbow=vertical;" parent="1" edge="1">
          <mxGeometry x="0.0035" relative="1" as="geometry">
            <mxPoint x="639.8324683382916" y="609.9999568965517" as="sourcePoint" />
            <mxPoint x="397.5625966850829" y="610.28" as="targetPoint" />
            <mxPoint as="offset" />
            <Array as="points">
              <mxPoint x="619.8574407139822" y="610.1886251486325" />
            </Array>
          </mxGeometry>
        </mxCell>
        <mxCell id="rrxrWV5JKAd1Jxnc8wNa-26" value="" style="html=1;points=[];perimeter=orthogonalPerimeter;container=0;" parent="1" vertex="1">
          <mxGeometry x="382.19" y="234.83" width="15.37" height="35.17" as="geometry" />
        </mxCell>
        <mxCell id="rrxrWV5JKAd1Jxnc8wNa-3" value="editName($_POST[&#39;newname&#39;], $userid)" style="html=1;verticalAlign=bottom;endArrow=block;rounded=0;" parent="1" edge="1">
          <mxGeometry x="-0.0015" y="9" width="80" relative="1" as="geometry">
            <mxPoint x="650" y="530" as="sourcePoint" />
            <mxPoint x="870" y="530" as="targetPoint" />
            <mxPoint as="offset" />
          </mxGeometry>
        </mxCell>
        <mxCell id="QQ55KDb4OGq9LbFW0DJH-2" value=":editname.php" style="shape=umlLifeline;perimeter=lifelinePerimeter;whiteSpace=wrap;html=1;container=0;collapsible=0;recursiveResize=0;outlineConnect=0;" parent="1" vertex="1">
          <mxGeometry x="570" y="150" width="156.72" height="530" as="geometry" />
        </mxCell>
        <mxCell id="QQ55KDb4OGq9LbFW0DJH-1" value="&lt;font style=&quot;font-size: 14px;&quot;&gt;&lt;b&gt;&lt;u&gt;Edit Name&lt;/u&gt;&lt;/b&gt;&lt;/font&gt;" style="text;html=1;align=center;verticalAlign=middle;resizable=0;points=[];autosize=1;strokeColor=none;fillColor=none;" parent="1" vertex="1">
          <mxGeometry x="495.56000000000006" y="100" width="90" height="30" as="geometry" />
        </mxCell>
        <mxCell id="QQ55KDb4OGq9LbFW0DJH-4" value="redirect to editname.php" style="html=1;verticalAlign=bottom;endArrow=block;rounded=0;elbow=vertical;entryX=-0.096;entryY=0.025;entryDx=0;entryDy=0;entryPerimeter=0;" parent="1" target="rrxrWV5JKAd1Jxnc8wNa-1" edge="1">
          <mxGeometry x="-0.0586" y="3" width="80" relative="1" as="geometry">
            <mxPoint x="400" y="270.24" as="sourcePoint" />
            <mxPoint x="612.45" y="270.00195005945307" as="targetPoint" />
            <mxPoint as="offset" />
          </mxGeometry>
        </mxCell>
        <mxCell id="rrxrWV5JKAd1Jxnc8wNa-1" value="" style="html=1;points=[];perimeter=orthogonalPerimeter;container=0;" parent="1" vertex="1">
          <mxGeometry x="640.67" y="270" width="15.37" height="30" as="geometry" />
        </mxCell>
        <mxCell id="QQ55KDb4OGq9LbFW0DJH-6" value="$DisplayForm" style="html=1;verticalAlign=bottom;endArrow=open;dashed=1;endSize=8;rounded=0;elbow=vertical;" parent="1" edge="1">
          <mxGeometry x="0.0017" relative="1" as="geometry">
            <mxPoint x="653.6024683382915" y="299.9999568965517" as="sourcePoint" />
            <mxPoint x="397.56000000000006" y="300" as="targetPoint" />
            <mxPoint as="offset" />
            <Array as="points">
              <mxPoint x="633.6274407139821" y="300.1886251486326" />
            </Array>
          </mxGeometry>
        </mxCell>
        <mxCell id="QQ55KDb4OGq9LbFW0DJH-7" value="enters new name" style="html=1;verticalAlign=bottom;endArrow=block;rounded=0;elbow=vertical;" parent="1" edge="1">
          <mxGeometry x="-0.0586" y="3" width="80" relative="1" as="geometry">
            <mxPoint x="172.19" y="340" as="sourcePoint" />
            <mxPoint x="382.19" y="340" as="targetPoint" />
            <mxPoint as="offset" />
          </mxGeometry>
        </mxCell>
        <mxCell id="QQ55KDb4OGq9LbFW0DJH-9" value="clicks confirm button" style="html=1;verticalAlign=bottom;endArrow=block;rounded=0;elbow=vertical;" parent="1" edge="1">
          <mxGeometry x="-0.0685" y="-20" width="80" relative="1" as="geometry">
            <mxPoint x="172.19" y="474.41" as="sourcePoint" />
            <mxPoint x="382.19" y="474.41" as="targetPoint" />
            <mxPoint as="offset" />
          </mxGeometry>
        </mxCell>
        <mxCell id="QQ55KDb4OGq9LbFW0DJH-10" value="" style="html=1;points=[];perimeter=orthogonalPerimeter;container=0;" parent="1" vertex="1">
          <mxGeometry x="382.19" y="470" width="15.37" height="30" as="geometry" />
        </mxCell>
        <mxCell id="QQ55KDb4OGq9LbFW0DJH-12" value="$_POST[&#39;submit&#39;]" style="html=1;verticalAlign=bottom;endArrow=block;rounded=0;elbow=vertical;entryX=-0.096;entryY=0.025;entryDx=0;entryDy=0;entryPerimeter=0;" parent="1" edge="1">
          <mxGeometry x="-0.0586" y="3" width="80" relative="1" as="geometry">
            <mxPoint x="401.6700000000001" y="500" as="sourcePoint" />
            <mxPoint x="640.67" y="500.76" as="targetPoint" />
            <mxPoint as="offset" />
          </mxGeometry>
        </mxCell>
        <mxCell id="QQ55KDb4OGq9LbFW0DJH-13" value="" style="html=1;points=[];perimeter=orthogonalPerimeter;container=0;" parent="1" vertex="1">
          <mxGeometry x="640.67" y="500" width="15.37" height="30" as="geometry" />
        </mxCell>
        <mxCell id="QQ55KDb4OGq9LbFW0DJH-18" value="clicks cancel button" style="html=1;verticalAlign=bottom;endArrow=block;rounded=0;elbow=vertical;" parent="1" edge="1">
          <mxGeometry x="0.4077" width="80" relative="1" as="geometry">
            <mxPoint x="172.19" y="390" as="sourcePoint" />
            <mxPoint x="382.19" y="390" as="targetPoint" />
            <mxPoint as="offset" />
          </mxGeometry>
        </mxCell>
        <mxCell id="QQ55KDb4OGq9LbFW0DJH-22" value="" style="html=1;points=[];perimeter=orthogonalPerimeter;container=0;" parent="1" vertex="1">
          <mxGeometry x="871.93" y="530" width="15.37" height="40" as="geometry" />
        </mxCell>
        <mxCell id="QQ55KDb4OGq9LbFW0DJH-23" value="" style="html=1;points=[];perimeter=orthogonalPerimeter;container=0;" parent="1" vertex="1">
          <mxGeometry x="640.67" y="570" width="15.37" height="40" as="geometry" />
        </mxCell>
        <mxCell id="BHGGA8FH1MstIcf6RSHf-37" value="$_SESSION[&#39;successStatus&#39;]" style="html=1;verticalAlign=bottom;endArrow=open;dashed=1;endSize=8;rounded=0;elbow=vertical;exitX=-0.256;exitY=1.005;exitDx=0;exitDy=0;exitPerimeter=0;" parent="1" source="QQ55KDb4OGq9LbFW0DJH-22" target="QQ55KDb4OGq9LbFW0DJH-23" edge="1">
          <mxGeometry x="0.012" relative="1" as="geometry">
            <mxPoint x="862.19" y="570" as="sourcePoint" />
            <mxPoint x="680" y="570" as="targetPoint" />
            <mxPoint as="offset" />
            <Array as="points">
              <mxPoint x="748.919365079365" y="570.3523424494649" />
            </Array>
          </mxGeometry>
        </mxCell>
        <mxCell id="QQ55KDb4OGq9LbFW0DJH-24" value="" style="html=1;points=[];perimeter=orthogonalPerimeter;container=0;" parent="1" vertex="1">
          <mxGeometry x="382.18999999999994" y="610" width="15.37" height="40" as="geometry" />
        </mxCell>
        <mxCell id="QQ55KDb4OGq9LbFW0DJH-25" value="User Information Successfully Updated" style="text;whiteSpace=wrap;html=1;" parent="1" vertex="1">
          <mxGeometry x="404.92999999999995" y="610" width="240" height="40" as="geometry" />
        </mxCell>
        <mxCell id="QQ55KDb4OGq9LbFW0DJH-85" value="" style="line;strokeWidth=1;fillColor=none;align=left;verticalAlign=middle;spacingTop=-1;spacingLeft=3;spacingRight=3;rotatable=0;labelPosition=right;points=[];portConstraint=eastwest;strokeColor=inherit;" parent="1" vertex="1">
          <mxGeometry x="220.1" y="440" width="699.9" height="8" as="geometry" />
        </mxCell>
        <mxCell id="QQ55KDb4OGq9LbFW0DJH-86" value="" style="html=1;points=[];perimeter=orthogonalPerimeter;container=0;" parent="1" vertex="1">
          <mxGeometry x="382.19" y="390" width="15.37" height="30" as="geometry" />
        </mxCell>
        <mxCell id="Lrtluq5l5MD6FJIpUNIz-2" value=":user.php" style="shape=umlLifeline;perimeter=lifelinePerimeter;whiteSpace=wrap;html=1;container=0;collapsible=0;recursiveResize=0;outlineConnect=0;" parent="1" vertex="1">
          <mxGeometry x="801.25" y="150" width="156.72" height="530" as="geometry" />
        </mxCell>
        <mxCell id="Lrtluq5l5MD6FJIpUNIz-3" value="click &quot;Edit&quot;" style="html=1;verticalAlign=bottom;endArrow=block;rounded=0;elbow=vertical;" parent="1" edge="1">
          <mxGeometry x="-0.0586" y="3" width="80" relative="1" as="geometry">
            <mxPoint x="200" y="233" as="sourcePoint" />
            <mxPoint x="380" y="233" as="targetPoint" />
            <mxPoint as="offset" />
          </mxGeometry>
        </mxCell>
        <mxCell id="Lrtluq5l5MD6FJIpUNIz-4" value="" style="shape=umlLifeline;participant=umlActor;perimeter=lifelinePerimeter;whiteSpace=wrap;html=1;container=0;collapsible=0;recursiveResize=0;verticalAlign=top;spacingTop=36;outlineConnect=0;fontFamily=Helvetica;fontSize=12;fontColor=default;align=center;strokeColor=default;fillColor=default;size=50;" parent="1" vertex="1">
          <mxGeometry x="145.1" y="185.14" width="46.09" height="494.86" as="geometry" />
        </mxCell>
        <mxCell id="Lrtluq5l5MD6FJIpUNIz-5" value="Organization" style="text;html=1;align=center;verticalAlign=middle;resizable=1;points=[];autosize=1;strokeColor=none;fillColor=none;container=0;movable=1;rotatable=1;deletable=1;editable=1;connectable=1;locked=0;" parent="1" vertex="1">
          <mxGeometry x="130.1" y="150" width="90" height="30" as="geometry" />
        </mxCell>
        <mxCell id="Lrtluq5l5MD6FJIpUNIz-6" value=":accountsettings.php" style="shape=umlLifeline;perimeter=lifelinePerimeter;whiteSpace=wrap;html=1;container=0;collapsible=0;recursiveResize=0;outlineConnect=0;" parent="1" vertex="1">
          <mxGeometry x="290" y="150" width="199.75" height="530" as="geometry" />
        </mxCell>
        <mxCell id="Lrtluq5l5MD6FJIpUNIz-7" value="" style="html=1;points=[];perimeter=orthogonalPerimeter;container=0;" parent="1" vertex="1">
          <mxGeometry x="382.19" y="300" width="15.37" height="30" as="geometry" />
        </mxCell>
        <mxCell id="Lrtluq5l5MD6FJIpUNIz-8" value="redirect accountsettings.php" style="html=1;verticalAlign=bottom;endArrow=open;dashed=1;endSize=8;rounded=0;elbow=vertical;" parent="1" edge="1">
          <mxGeometry x="0.0035" relative="1" as="geometry">
            <mxPoint x="639.8324683382916" y="609.9999568965517" as="sourcePoint" />
            <mxPoint x="397.5625966850829" y="610.28" as="targetPoint" />
            <mxPoint as="offset" />
            <Array as="points">
              <mxPoint x="619.8574407139822" y="610.1886251486325" />
            </Array>
          </mxGeometry>
        </mxCell>
        <mxCell id="Lrtluq5l5MD6FJIpUNIz-9" value="" style="html=1;points=[];perimeter=orthogonalPerimeter;container=0;" parent="1" vertex="1">
          <mxGeometry x="382.19" y="234.83" width="15.37" height="35.17" as="geometry" />
        </mxCell>
        <mxCell id="Lrtluq5l5MD6FJIpUNIz-10" value="editName($_POST[&#39;newname&#39;], $userid)" style="html=1;verticalAlign=bottom;endArrow=block;rounded=0;" parent="1" edge="1">
          <mxGeometry x="-0.0015" y="9" width="80" relative="1" as="geometry">
            <mxPoint x="650" y="530" as="sourcePoint" />
            <mxPoint x="870" y="530" as="targetPoint" />
            <mxPoint as="offset" />
          </mxGeometry>
        </mxCell>
        <mxCell id="Lrtluq5l5MD6FJIpUNIz-11" value=":editname.php" style="shape=umlLifeline;perimeter=lifelinePerimeter;whiteSpace=wrap;html=1;container=0;collapsible=0;recursiveResize=0;outlineConnect=0;" parent="1" vertex="1">
          <mxGeometry x="570" y="150" width="156.72" height="530" as="geometry" />
        </mxCell>
        <mxCell id="Lrtluq5l5MD6FJIpUNIz-12" value="&lt;font style=&quot;font-size: 14px;&quot;&gt;&lt;b&gt;&lt;u&gt;Edit Name&lt;/u&gt;&lt;/b&gt;&lt;/font&gt;" style="text;html=1;align=center;verticalAlign=middle;resizable=0;points=[];autosize=1;strokeColor=none;fillColor=none;" parent="1" vertex="1">
          <mxGeometry x="495.56000000000006" y="100" width="90" height="30" as="geometry" />
        </mxCell>
        <mxCell id="Lrtluq5l5MD6FJIpUNIz-13" value="redirect to editname.php" style="html=1;verticalAlign=bottom;endArrow=block;rounded=0;elbow=vertical;entryX=-0.096;entryY=0.025;entryDx=0;entryDy=0;entryPerimeter=0;" parent="1" target="Lrtluq5l5MD6FJIpUNIz-14" edge="1">
          <mxGeometry x="-0.0586" y="3" width="80" relative="1" as="geometry">
            <mxPoint x="400" y="270.24" as="sourcePoint" />
            <mxPoint x="612.45" y="270.00195005945307" as="targetPoint" />
            <mxPoint as="offset" />
          </mxGeometry>
        </mxCell>
        <mxCell id="Lrtluq5l5MD6FJIpUNIz-14" value="" style="html=1;points=[];perimeter=orthogonalPerimeter;container=0;" parent="1" vertex="1">
          <mxGeometry x="640.67" y="270" width="15.37" height="30" as="geometry" />
        </mxCell>
        <mxCell id="Lrtluq5l5MD6FJIpUNIz-15" value="$DisplayForm" style="html=1;verticalAlign=bottom;endArrow=open;dashed=1;endSize=8;rounded=0;elbow=vertical;" parent="1" edge="1">
          <mxGeometry x="0.0017" relative="1" as="geometry">
            <mxPoint x="653.6024683382915" y="299.9999568965517" as="sourcePoint" />
            <mxPoint x="397.56000000000006" y="300" as="targetPoint" />
            <mxPoint as="offset" />
            <Array as="points">
              <mxPoint x="633.6274407139821" y="300.1886251486326" />
            </Array>
          </mxGeometry>
        </mxCell>
        <mxCell id="Lrtluq5l5MD6FJIpUNIz-16" value="enters new name" style="html=1;verticalAlign=bottom;endArrow=block;rounded=0;elbow=vertical;" parent="1" edge="1">
          <mxGeometry x="-0.0586" y="3" width="80" relative="1" as="geometry">
            <mxPoint x="172.19" y="340" as="sourcePoint" />
            <mxPoint x="382.19" y="340" as="targetPoint" />
            <mxPoint as="offset" />
          </mxGeometry>
        </mxCell>
        <mxCell id="Lrtluq5l5MD6FJIpUNIz-17" value="clicks confirm button" style="html=1;verticalAlign=bottom;endArrow=block;rounded=0;elbow=vertical;" parent="1" edge="1">
          <mxGeometry x="-0.0685" y="-20" width="80" relative="1" as="geometry">
            <mxPoint x="172.19" y="474.41" as="sourcePoint" />
            <mxPoint x="382.19" y="474.41" as="targetPoint" />
            <mxPoint as="offset" />
          </mxGeometry>
        </mxCell>
        <mxCell id="Lrtluq5l5MD6FJIpUNIz-18" value="" style="html=1;points=[];perimeter=orthogonalPerimeter;container=0;" parent="1" vertex="1">
          <mxGeometry x="382.19" y="470" width="15.37" height="30" as="geometry" />
        </mxCell>
        <mxCell id="Lrtluq5l5MD6FJIpUNIz-19" value="$_POST[&#39;submit&#39;]" style="html=1;verticalAlign=bottom;endArrow=block;rounded=0;elbow=vertical;entryX=-0.096;entryY=0.025;entryDx=0;entryDy=0;entryPerimeter=0;" parent="1" edge="1">
          <mxGeometry x="-0.0586" y="3" width="80" relative="1" as="geometry">
            <mxPoint x="401.6700000000001" y="500" as="sourcePoint" />
            <mxPoint x="640.67" y="500.76" as="targetPoint" />
            <mxPoint as="offset" />
          </mxGeometry>
        </mxCell>
        <mxCell id="Lrtluq5l5MD6FJIpUNIz-20" value="" style="html=1;points=[];perimeter=orthogonalPerimeter;container=0;" parent="1" vertex="1">
          <mxGeometry x="640.67" y="500" width="15.37" height="30" as="geometry" />
        </mxCell>
        <mxCell id="Lrtluq5l5MD6FJIpUNIz-21" value="clicks cancel button" style="html=1;verticalAlign=bottom;endArrow=block;rounded=0;elbow=vertical;" parent="1" edge="1">
          <mxGeometry x="0.4077" width="80" relative="1" as="geometry">
            <mxPoint x="172.19" y="390" as="sourcePoint" />
            <mxPoint x="382.19" y="390" as="targetPoint" />
            <mxPoint as="offset" />
          </mxGeometry>
        </mxCell>
        <mxCell id="Lrtluq5l5MD6FJIpUNIz-23" value="" style="html=1;points=[];perimeter=orthogonalPerimeter;container=0;" parent="1" vertex="1">
          <mxGeometry x="871.93" y="530" width="15.37" height="40" as="geometry" />
        </mxCell>
        <mxCell id="Lrtluq5l5MD6FJIpUNIz-24" value="" style="html=1;points=[];perimeter=orthogonalPerimeter;container=0;" parent="1" vertex="1">
          <mxGeometry x="640.67" y="570" width="15.37" height="40" as="geometry" />
        </mxCell>
        <mxCell id="Lrtluq5l5MD6FJIpUNIz-25" value="$_SESSION[&#39;successStatus&#39;]" style="html=1;verticalAlign=bottom;endArrow=open;dashed=1;endSize=8;rounded=0;elbow=vertical;exitX=-0.256;exitY=1.005;exitDx=0;exitDy=0;exitPerimeter=0;" parent="1" source="Lrtluq5l5MD6FJIpUNIz-23" target="Lrtluq5l5MD6FJIpUNIz-24" edge="1">
          <mxGeometry x="0.012" relative="1" as="geometry">
            <mxPoint x="862.19" y="570" as="sourcePoint" />
            <mxPoint x="680" y="570" as="targetPoint" />
            <mxPoint as="offset" />
            <Array as="points">
              <mxPoint x="748.919365079365" y="570.3523424494649" />
            </Array>
          </mxGeometry>
        </mxCell>
        <mxCell id="Lrtluq5l5MD6FJIpUNIz-26" value="" style="html=1;points=[];perimeter=orthogonalPerimeter;container=0;" parent="1" vertex="1">
          <mxGeometry x="382.18999999999994" y="610" width="15.37" height="40" as="geometry" />
        </mxCell>
        <mxCell id="Lrtluq5l5MD6FJIpUNIz-28" value="" style="line;strokeWidth=1;fillColor=none;align=left;verticalAlign=middle;spacingTop=-1;spacingLeft=3;spacingRight=3;rotatable=0;labelPosition=right;points=[];portConstraint=eastwest;strokeColor=inherit;" parent="1" vertex="1">
          <mxGeometry x="220.1" y="440" width="699.9" height="8" as="geometry" />
        </mxCell>
        <mxCell id="Lrtluq5l5MD6FJIpUNIz-29" value="" style="html=1;points=[];perimeter=orthogonalPerimeter;container=0;" parent="1" vertex="1">
          <mxGeometry x="382.19" y="390" width="15.37" height="30" as="geometry" />
        </mxCell>
        <mxCell id="Lrtluq5l5MD6FJIpUNIz-30" value="alt" style="shape=umlFrame;whiteSpace=wrap;html=1;width=50;height=30;" parent="1" vertex="1">
          <mxGeometry x="1436.5300000000002" y="437.57" width="700" height="330" as="geometry" />
        </mxCell>
        <mxCell id="Lrtluq5l5MD6FJIpUNIz-31" value=":user.php" style="shape=umlLifeline;perimeter=lifelinePerimeter;whiteSpace=wrap;html=1;container=0;collapsible=0;recursiveResize=0;outlineConnect=0;" parent="1" vertex="1">
          <mxGeometry x="2030" y="127.57" width="156.72" height="650" as="geometry" />
        </mxCell>
        <mxCell id="Lrtluq5l5MD6FJIpUNIz-32" value="click &quot;Edit&quot;" style="html=1;verticalAlign=bottom;endArrow=block;rounded=0;elbow=vertical;" parent="1" edge="1">
          <mxGeometry x="-0.0586" y="3" width="80" relative="1" as="geometry">
            <mxPoint x="1409.9" y="210.57" as="sourcePoint" />
            <mxPoint x="1589.9" y="210.57" as="targetPoint" />
            <mxPoint as="offset" />
          </mxGeometry>
        </mxCell>
        <mxCell id="Lrtluq5l5MD6FJIpUNIz-33" value="" style="shape=umlLifeline;participant=umlActor;perimeter=lifelinePerimeter;whiteSpace=wrap;html=1;container=0;collapsible=0;recursiveResize=0;verticalAlign=top;spacingTop=36;outlineConnect=0;fontFamily=Helvetica;fontSize=12;fontColor=default;align=center;strokeColor=default;fillColor=default;size=50;" parent="1" vertex="1">
          <mxGeometry x="1355" y="162.70999999999998" width="46.09" height="624.86" as="geometry" />
        </mxCell>
        <mxCell id="Lrtluq5l5MD6FJIpUNIz-34" value="Organization" style="text;html=1;align=center;verticalAlign=middle;resizable=1;points=[];autosize=1;strokeColor=none;fillColor=none;container=0;movable=1;rotatable=1;deletable=1;editable=1;connectable=1;locked=0;" parent="1" vertex="1">
          <mxGeometry x="1340" y="127.57" width="90" height="30" as="geometry" />
        </mxCell>
        <mxCell id="Lrtluq5l5MD6FJIpUNIz-35" value=":accountsettings.php" style="shape=umlLifeline;perimeter=lifelinePerimeter;whiteSpace=wrap;html=1;container=0;collapsible=0;recursiveResize=0;outlineConnect=0;" parent="1" vertex="1">
          <mxGeometry x="1499.9" y="127.57" width="199.75" height="660" as="geometry" />
        </mxCell>
        <mxCell id="Lrtluq5l5MD6FJIpUNIz-36" value="" style="html=1;points=[];perimeter=orthogonalPerimeter;container=0;" parent="1" vertex="1">
          <mxGeometry x="1592.0900000000001" y="277.57" width="15.37" height="30" as="geometry" />
        </mxCell>
        <mxCell id="Lrtluq5l5MD6FJIpUNIz-37" value="redirect accountsettings.php" style="html=1;verticalAlign=bottom;endArrow=open;dashed=1;endSize=8;rounded=0;elbow=vertical;" parent="1" edge="1">
          <mxGeometry x="0.0035" relative="1" as="geometry">
            <mxPoint x="1851.8424683382918" y="710.5699568965517" as="sourcePoint" />
            <mxPoint x="1609.5725966850832" y="710.8499999999999" as="targetPoint" />
            <mxPoint as="offset" />
            <Array as="points">
              <mxPoint x="1831.8674407139824" y="710.7586251486325" />
            </Array>
          </mxGeometry>
        </mxCell>
        <mxCell id="Lrtluq5l5MD6FJIpUNIz-38" value="" style="html=1;points=[];perimeter=orthogonalPerimeter;container=0;" parent="1" vertex="1">
          <mxGeometry x="1592.0900000000001" y="212.40000000000003" width="15.37" height="35.17" as="geometry" />
        </mxCell>
        <mxCell id="Lrtluq5l5MD6FJIpUNIz-39" value="editPassword( hash(&#39;md5&#39;," style="html=1;verticalAlign=bottom;endArrow=block;rounded=0;" parent="1" edge="1">
          <mxGeometry x="0.0577" width="80" relative="1" as="geometry">
            <mxPoint x="1866.5300000000002" y="617.5699999999999" as="sourcePoint" />
            <mxPoint x="2100" y="617.5699999999999" as="targetPoint" />
            <mxPoint as="offset" />
          </mxGeometry>
        </mxCell>
        <mxCell id="Lrtluq5l5MD6FJIpUNIz-40" value=":editpassword.php" style="shape=umlLifeline;perimeter=lifelinePerimeter;whiteSpace=wrap;html=1;container=0;collapsible=0;recursiveResize=0;outlineConnect=0;" parent="1" vertex="1">
          <mxGeometry x="1779.9" y="127.57" width="156.72" height="660" as="geometry" />
        </mxCell>
        <mxCell id="Lrtluq5l5MD6FJIpUNIz-41" value="&lt;font style=&quot;font-size: 14px;&quot;&gt;&lt;b&gt;&lt;u&gt;Edit Password&lt;/u&gt;&lt;/b&gt;&lt;/font&gt;" style="text;html=1;align=center;verticalAlign=middle;resizable=0;points=[];autosize=1;strokeColor=none;fillColor=none;" parent="1" vertex="1">
          <mxGeometry x="1690.46" y="77.57" width="120" height="30" as="geometry" />
        </mxCell>
        <mxCell id="Lrtluq5l5MD6FJIpUNIz-42" value="redirect to&amp;nbsp;editpassword.php" style="html=1;verticalAlign=bottom;endArrow=block;rounded=0;elbow=vertical;entryX=-0.096;entryY=0.025;entryDx=0;entryDy=0;entryPerimeter=0;" parent="1" target="Lrtluq5l5MD6FJIpUNIz-43" edge="1">
          <mxGeometry x="-0.0586" y="3" width="80" relative="1" as="geometry">
            <mxPoint x="1609.9" y="247.81" as="sourcePoint" />
            <mxPoint x="1822.3500000000004" y="247.57195005945306" as="targetPoint" />
            <mxPoint as="offset" />
          </mxGeometry>
        </mxCell>
        <mxCell id="Lrtluq5l5MD6FJIpUNIz-43" value="" style="html=1;points=[];perimeter=orthogonalPerimeter;container=0;" parent="1" vertex="1">
          <mxGeometry x="1850.5700000000002" y="247.57" width="15.37" height="30" as="geometry" />
        </mxCell>
        <mxCell id="Lrtluq5l5MD6FJIpUNIz-44" value="$DisplayForm" style="html=1;verticalAlign=bottom;endArrow=open;dashed=1;endSize=8;rounded=0;elbow=vertical;" parent="1" edge="1">
          <mxGeometry x="0.0035" relative="1" as="geometry">
            <mxPoint x="1863.5024683382917" y="277.5699568965517" as="sourcePoint" />
            <mxPoint x="1607.46" y="277.57" as="targetPoint" />
            <mxPoint as="offset" />
            <Array as="points">
              <mxPoint x="1843.5274407139823" y="277.7586251486326" />
            </Array>
          </mxGeometry>
        </mxCell>
        <mxCell id="Lrtluq5l5MD6FJIpUNIz-45" value="enters current password" style="html=1;verticalAlign=bottom;endArrow=block;rounded=0;elbow=vertical;" parent="1" edge="1">
          <mxGeometry x="-0.0586" y="3" width="80" relative="1" as="geometry">
            <mxPoint x="1388.7200000000003" y="327.57" as="sourcePoint" />
            <mxPoint x="1598.7200000000003" y="327.57" as="targetPoint" />
            <mxPoint as="offset" />
          </mxGeometry>
        </mxCell>
        <mxCell id="Lrtluq5l5MD6FJIpUNIz-46" value="clicks confirm button" style="html=1;verticalAlign=bottom;endArrow=block;rounded=0;elbow=vertical;" parent="1" edge="1">
          <mxGeometry x="-0.0685" y="-20" width="80" relative="1" as="geometry">
            <mxPoint x="1388.7200000000003" y="561.98" as="sourcePoint" />
            <mxPoint x="1598.7200000000003" y="561.98" as="targetPoint" />
            <mxPoint as="offset" />
          </mxGeometry>
        </mxCell>
        <mxCell id="Lrtluq5l5MD6FJIpUNIz-47" value="" style="html=1;points=[];perimeter=orthogonalPerimeter;container=0;" parent="1" vertex="1">
          <mxGeometry x="1598.7200000000003" y="557.5699999999999" width="15.37" height="30" as="geometry" />
        </mxCell>
        <mxCell id="Lrtluq5l5MD6FJIpUNIz-48" value="$_POST[&#39;submit&#39;]" style="html=1;verticalAlign=bottom;endArrow=block;rounded=0;elbow=vertical;" parent="1" edge="1">
          <mxGeometry x="-0.0586" y="3" width="80" relative="1" as="geometry">
            <mxPoint x="1618.2000000000003" y="587.5699999999999" as="sourcePoint" />
            <mxPoint x="1840" y="588.5699999999999" as="targetPoint" />
            <mxPoint as="offset" />
          </mxGeometry>
        </mxCell>
        <mxCell id="Lrtluq5l5MD6FJIpUNIz-49" value="" style="html=1;points=[];perimeter=orthogonalPerimeter;container=0;" parent="1" vertex="1">
          <mxGeometry x="1850.5700000000002" y="587.5699999999999" width="15.37" height="30" as="geometry" />
        </mxCell>
        <mxCell id="Lrtluq5l5MD6FJIpUNIz-50" value="clicks cancel button" style="html=1;verticalAlign=bottom;endArrow=block;rounded=0;elbow=vertical;" parent="1" edge="1">
          <mxGeometry x="0.4077" width="80" relative="1" as="geometry">
            <mxPoint x="1388.7200000000003" y="477.57" as="sourcePoint" />
            <mxPoint x="1598.7200000000003" y="477.57" as="targetPoint" />
            <mxPoint as="offset" />
          </mxGeometry>
        </mxCell>
        <mxCell id="Lrtluq5l5MD6FJIpUNIz-52" value="" style="html=1;points=[];perimeter=orthogonalPerimeter;container=0;" parent="1" vertex="1">
          <mxGeometry x="2100.67" y="617.5699999999999" width="15.37" height="50" as="geometry" />
        </mxCell>
        <mxCell id="Lrtluq5l5MD6FJIpUNIz-53" value="" style="html=1;points=[];perimeter=orthogonalPerimeter;container=0;" parent="1" vertex="1">
          <mxGeometry x="1850.5700000000002" y="667.5699999999999" width="15.37" height="40" as="geometry" />
        </mxCell>
        <mxCell id="Lrtluq5l5MD6FJIpUNIz-54" value="$_SESSION[&#39;successStatus&#39;]" style="html=1;verticalAlign=bottom;endArrow=open;dashed=1;endSize=8;rounded=0;elbow=vertical;entryX=0.847;entryY=0.038;entryDx=0;entryDy=0;entryPerimeter=0;" parent="1" target="Lrtluq5l5MD6FJIpUNIz-53" edge="1">
          <mxGeometry x="0.012" relative="1" as="geometry">
            <mxPoint x="2090" y="667.5699999999999" as="sourcePoint" />
            <mxPoint x="1900" y="667.5699999999999" as="targetPoint" />
            <mxPoint as="offset" />
            <Array as="points">
              <mxPoint x="1985.4493650793652" y="667.9223424494648" />
            </Array>
          </mxGeometry>
        </mxCell>
        <mxCell id="Lrtluq5l5MD6FJIpUNIz-55" value="" style="html=1;points=[];perimeter=orthogonalPerimeter;container=0;" parent="1" vertex="1">
          <mxGeometry x="1592.0900000000001" y="707.5699999999999" width="15.37" height="40" as="geometry" />
        </mxCell>
        <mxCell id="Lrtluq5l5MD6FJIpUNIz-56" value="User Information Successfully Updated" style="text;whiteSpace=wrap;html=1;" parent="1" vertex="1">
          <mxGeometry x="1625.94" y="707.5699999999999" width="240" height="40" as="geometry" />
        </mxCell>
        <mxCell id="Lrtluq5l5MD6FJIpUNIz-57" value="" style="line;strokeWidth=1;fillColor=none;align=left;verticalAlign=middle;spacingTop=-1;spacingLeft=3;spacingRight=3;rotatable=0;labelPosition=right;points=[];portConstraint=eastwest;strokeColor=inherit;" parent="1" vertex="1">
          <mxGeometry x="1436.63" y="527.5699999999999" width="699.9" height="8" as="geometry" />
        </mxCell>
        <mxCell id="Lrtluq5l5MD6FJIpUNIz-58" value="" style="html=1;points=[];perimeter=orthogonalPerimeter;container=0;" parent="1" vertex="1">
          <mxGeometry x="1598.7200000000003" y="477.57" width="15.37" height="30" as="geometry" />
        </mxCell>
        <mxCell id="Lrtluq5l5MD6FJIpUNIz-59" value="enters newpassword" style="html=1;verticalAlign=bottom;endArrow=block;rounded=0;elbow=vertical;" parent="1" edge="1">
          <mxGeometry x="-0.0586" y="3" width="80" relative="1" as="geometry">
            <mxPoint x="1388.7200000000003" y="350.98" as="sourcePoint" />
            <mxPoint x="1598.7200000000003" y="350.98" as="targetPoint" />
            <mxPoint as="offset" />
          </mxGeometry>
        </mxCell>
        <mxCell id="Lrtluq5l5MD6FJIpUNIz-60" value="re-enter new password" style="html=1;verticalAlign=bottom;endArrow=block;rounded=0;elbow=vertical;" parent="1" target="Lrtluq5l5MD6FJIpUNIz-35" edge="1">
          <mxGeometry x="-0.0586" y="3" width="80" relative="1" as="geometry">
            <mxPoint x="1384.0000000000002" y="377.57" as="sourcePoint" />
            <mxPoint x="1594.0000000000002" y="377.57" as="targetPoint" />
            <mxPoint as="offset" />
          </mxGeometry>
        </mxCell>
        <mxCell id="Lrtluq5l5MD6FJIpUNIz-61" value="&lt;font style=&quot;font-size: 11px;&quot;&gt;$_POST[&#39;newpassword&#39;]), $userid)&lt;/font&gt;" style="text;html=1;align=center;verticalAlign=middle;resizable=0;points=[];autosize=1;strokeColor=none;fillColor=none;" parent="1" vertex="1">
          <mxGeometry x="1890" y="617.5699999999999" width="190" height="30" as="geometry" />
        </mxCell>
        <mxCell id="Lrtluq5l5MD6FJIpUNIz-62" value="alt" style="shape=umlFrame;whiteSpace=wrap;html=1;width=50;height=30;" parent="1" vertex="1">
          <mxGeometry x="200.89" y="1140" width="700" height="330" as="geometry" />
        </mxCell>
        <mxCell id="Lrtluq5l5MD6FJIpUNIz-63" value=":user.php" style="shape=umlLifeline;perimeter=lifelinePerimeter;whiteSpace=wrap;html=1;container=0;collapsible=0;recursiveResize=0;outlineConnect=0;" parent="1" vertex="1">
          <mxGeometry x="782.1400000000001" y="940" width="156.72" height="530" as="geometry" />
        </mxCell>
        <mxCell id="Lrtluq5l5MD6FJIpUNIz-64" value="click &quot;Edit&quot;" style="html=1;verticalAlign=bottom;endArrow=block;rounded=0;elbow=vertical;" parent="1" edge="1">
          <mxGeometry x="-0.0586" y="3" width="80" relative="1" as="geometry">
            <mxPoint x="180.89" y="1023" as="sourcePoint" />
            <mxPoint x="360.89" y="1023" as="targetPoint" />
            <mxPoint as="offset" />
          </mxGeometry>
        </mxCell>
        <mxCell id="Lrtluq5l5MD6FJIpUNIz-65" value="" style="shape=umlLifeline;participant=umlActor;perimeter=lifelinePerimeter;whiteSpace=wrap;html=1;container=0;collapsible=0;recursiveResize=0;verticalAlign=top;spacingTop=36;outlineConnect=0;fontFamily=Helvetica;fontSize=12;fontColor=default;align=center;strokeColor=default;fillColor=default;size=50;" parent="1" vertex="1">
          <mxGeometry x="125.99000000000001" y="975.14" width="46.09" height="494.86" as="geometry" />
        </mxCell>
        <mxCell id="Lrtluq5l5MD6FJIpUNIz-66" value="Organization" style="text;html=1;align=center;verticalAlign=middle;resizable=1;points=[];autosize=1;strokeColor=none;fillColor=none;container=0;movable=1;rotatable=1;deletable=1;editable=1;connectable=1;locked=0;" parent="1" vertex="1">
          <mxGeometry x="110.99000000000001" y="940" width="90" height="30" as="geometry" />
        </mxCell>
        <mxCell id="Lrtluq5l5MD6FJIpUNIz-67" value=":accountsettings.php" style="shape=umlLifeline;perimeter=lifelinePerimeter;whiteSpace=wrap;html=1;container=0;collapsible=0;recursiveResize=0;outlineConnect=0;" parent="1" vertex="1">
          <mxGeometry x="270.89" y="940" width="199.75" height="530" as="geometry" />
        </mxCell>
        <mxCell id="Lrtluq5l5MD6FJIpUNIz-68" value="" style="html=1;points=[];perimeter=orthogonalPerimeter;container=0;" parent="1" vertex="1">
          <mxGeometry x="363.0799999999999" y="1090" width="15.37" height="30" as="geometry" />
        </mxCell>
        <mxCell id="Lrtluq5l5MD6FJIpUNIz-69" value="redirect accountsettings.php" style="html=1;verticalAlign=bottom;endArrow=open;dashed=1;endSize=8;rounded=0;elbow=vertical;" parent="1" edge="1">
          <mxGeometry x="0.0035" relative="1" as="geometry">
            <mxPoint x="620.7224683382916" y="1399.9999568965518" as="sourcePoint" />
            <mxPoint x="378.4525966850829" y="1400.28" as="targetPoint" />
            <mxPoint as="offset" />
            <Array as="points">
              <mxPoint x="600.7474407139822" y="1400.1886251486326" />
            </Array>
          </mxGeometry>
        </mxCell>
        <mxCell id="Lrtluq5l5MD6FJIpUNIz-70" value="" style="html=1;points=[];perimeter=orthogonalPerimeter;container=0;" parent="1" vertex="1">
          <mxGeometry x="363.0799999999999" y="1024.83" width="15.37" height="35.17" as="geometry" />
        </mxCell>
        <mxCell id="Lrtluq5l5MD6FJIpUNIz-71" value="editOrgName($_POST[&#39;neworgname&#39;],&amp;nbsp;" style="html=1;verticalAlign=bottom;endArrow=block;rounded=0;" parent="1" edge="1">
          <mxGeometry x="0.0828" width="80" relative="1" as="geometry">
            <mxPoint x="630.89" y="1320" as="sourcePoint" />
            <mxPoint x="850.8900000000001" y="1320" as="targetPoint" />
            <mxPoint as="offset" />
          </mxGeometry>
        </mxCell>
        <mxCell id="Lrtluq5l5MD6FJIpUNIz-72" value=":editorgname.php" style="shape=umlLifeline;perimeter=lifelinePerimeter;whiteSpace=wrap;html=1;container=0;collapsible=0;recursiveResize=0;outlineConnect=0;" parent="1" vertex="1">
          <mxGeometry x="550.89" y="940" width="156.72" height="530" as="geometry" />
        </mxCell>
        <mxCell id="Lrtluq5l5MD6FJIpUNIz-73" value="&lt;font style=&quot;font-size: 14px;&quot;&gt;&lt;b&gt;&lt;u&gt;Edit Organization name&lt;/u&gt;&lt;/b&gt;&lt;/font&gt;" style="text;html=1;align=center;verticalAlign=middle;resizable=0;points=[];autosize=1;strokeColor=none;fillColor=none;" parent="1" vertex="1">
          <mxGeometry x="431.45000000000005" y="890" width="180" height="30" as="geometry" />
        </mxCell>
        <mxCell id="Lrtluq5l5MD6FJIpUNIz-74" value="redirect to&amp;nbsp;editorgname.php" style="html=1;verticalAlign=bottom;endArrow=block;rounded=0;elbow=vertical;entryX=-0.096;entryY=0.025;entryDx=0;entryDy=0;entryPerimeter=0;" parent="1" target="Lrtluq5l5MD6FJIpUNIz-75" edge="1">
          <mxGeometry x="-0.0586" y="3" width="80" relative="1" as="geometry">
            <mxPoint x="380.89" y="1060.24" as="sourcePoint" />
            <mxPoint x="593.34" y="1060.001950059453" as="targetPoint" />
            <mxPoint as="offset" />
          </mxGeometry>
        </mxCell>
        <mxCell id="Lrtluq5l5MD6FJIpUNIz-75" value="" style="html=1;points=[];perimeter=orthogonalPerimeter;container=0;" parent="1" vertex="1">
          <mxGeometry x="621.56" y="1060" width="15.37" height="30" as="geometry" />
        </mxCell>
        <mxCell id="Lrtluq5l5MD6FJIpUNIz-76" value="$DisplayForm" style="html=1;verticalAlign=bottom;endArrow=open;dashed=1;endSize=8;rounded=0;elbow=vertical;" parent="1" edge="1">
          <mxGeometry x="0.0017" relative="1" as="geometry">
            <mxPoint x="634.4924683382915" y="1089.9999568965518" as="sourcePoint" />
            <mxPoint x="378.45000000000005" y="1090" as="targetPoint" />
            <mxPoint as="offset" />
            <Array as="points">
              <mxPoint x="614.5174407139821" y="1090.1886251486326" />
            </Array>
          </mxGeometry>
        </mxCell>
        <mxCell id="Lrtluq5l5MD6FJIpUNIz-77" value="enters new organizatoin name" style="html=1;verticalAlign=bottom;endArrow=block;rounded=0;elbow=vertical;" parent="1" edge="1">
          <mxGeometry x="-0.0586" y="3" width="80" relative="1" as="geometry">
            <mxPoint x="153.07999999999993" y="1130" as="sourcePoint" />
            <mxPoint x="363.0799999999999" y="1130" as="targetPoint" />
            <mxPoint as="offset" />
          </mxGeometry>
        </mxCell>
        <mxCell id="Lrtluq5l5MD6FJIpUNIz-78" value="clicks confirm button" style="html=1;verticalAlign=bottom;endArrow=block;rounded=0;elbow=vertical;" parent="1" edge="1">
          <mxGeometry x="-0.0685" y="-20" width="80" relative="1" as="geometry">
            <mxPoint x="153.07999999999993" y="1264.41" as="sourcePoint" />
            <mxPoint x="363.0799999999999" y="1264.41" as="targetPoint" />
            <mxPoint as="offset" />
          </mxGeometry>
        </mxCell>
        <mxCell id="Lrtluq5l5MD6FJIpUNIz-79" value="" style="html=1;points=[];perimeter=orthogonalPerimeter;container=0;" parent="1" vertex="1">
          <mxGeometry x="363.0799999999999" y="1260" width="15.37" height="30" as="geometry" />
        </mxCell>
        <mxCell id="Lrtluq5l5MD6FJIpUNIz-80" value="$_POST[&#39;submit&#39;]" style="html=1;verticalAlign=bottom;endArrow=block;rounded=0;elbow=vertical;entryX=-0.096;entryY=0.025;entryDx=0;entryDy=0;entryPerimeter=0;" parent="1" edge="1">
          <mxGeometry x="-0.0586" y="3" width="80" relative="1" as="geometry">
            <mxPoint x="382.56000000000006" y="1290" as="sourcePoint" />
            <mxPoint x="621.56" y="1290.76" as="targetPoint" />
            <mxPoint as="offset" />
          </mxGeometry>
        </mxCell>
        <mxCell id="Lrtluq5l5MD6FJIpUNIz-81" value="" style="html=1;points=[];perimeter=orthogonalPerimeter;container=0;" parent="1" vertex="1">
          <mxGeometry x="621.56" y="1290" width="15.37" height="30" as="geometry" />
        </mxCell>
        <mxCell id="Lrtluq5l5MD6FJIpUNIz-82" value="clicks cancel button" style="html=1;verticalAlign=bottom;endArrow=block;rounded=0;elbow=vertical;" parent="1" edge="1">
          <mxGeometry x="0.4077" width="80" relative="1" as="geometry">
            <mxPoint x="153.07999999999993" y="1180" as="sourcePoint" />
            <mxPoint x="363.0799999999999" y="1180" as="targetPoint" />
            <mxPoint as="offset" />
          </mxGeometry>
        </mxCell>
        <mxCell id="Lrtluq5l5MD6FJIpUNIz-84" value="" style="html=1;points=[];perimeter=orthogonalPerimeter;container=0;" parent="1" vertex="1">
          <mxGeometry x="852.82" y="1320" width="15.37" height="50" as="geometry" />
        </mxCell>
        <mxCell id="Lrtluq5l5MD6FJIpUNIz-85" value="" style="html=1;points=[];perimeter=orthogonalPerimeter;container=0;" parent="1" vertex="1">
          <mxGeometry x="621.56" y="1370" width="15.37" height="40" as="geometry" />
        </mxCell>
        <mxCell id="Lrtluq5l5MD6FJIpUNIz-86" value="$_SESSION[&#39;successStatus&#39;]" style="html=1;verticalAlign=bottom;endArrow=open;dashed=1;endSize=8;rounded=0;elbow=vertical;exitX=-0.256;exitY=1.005;exitDx=0;exitDy=0;exitPerimeter=0;entryX=0.844;entryY=0.059;entryDx=0;entryDy=0;entryPerimeter=0;" parent="1" source="Lrtluq5l5MD6FJIpUNIz-84" target="Lrtluq5l5MD6FJIpUNIz-85" edge="1">
          <mxGeometry x="0.012" relative="1" as="geometry">
            <mxPoint x="843.0800000000002" y="1360" as="sourcePoint" />
            <mxPoint x="650" y="1370" as="targetPoint" />
            <mxPoint as="offset" />
            <Array as="points">
              <mxPoint x="730" y="1370" />
            </Array>
          </mxGeometry>
        </mxCell>
        <mxCell id="Lrtluq5l5MD6FJIpUNIz-87" value="" style="html=1;points=[];perimeter=orthogonalPerimeter;container=0;" parent="1" vertex="1">
          <mxGeometry x="363.0799999999999" y="1400" width="15.37" height="40" as="geometry" />
        </mxCell>
        <mxCell id="Lrtluq5l5MD6FJIpUNIz-88" value="User Information Successfully Updated" style="text;whiteSpace=wrap;html=1;" parent="1" vertex="1">
          <mxGeometry x="385.81999999999994" y="1400" width="240" height="40" as="geometry" />
        </mxCell>
        <mxCell id="Lrtluq5l5MD6FJIpUNIz-89" value="" style="line;strokeWidth=1;fillColor=none;align=left;verticalAlign=middle;spacingTop=-1;spacingLeft=3;spacingRight=3;rotatable=0;labelPosition=right;points=[];portConstraint=eastwest;strokeColor=inherit;" parent="1" vertex="1">
          <mxGeometry x="200.99" y="1230" width="699.9" height="8" as="geometry" />
        </mxCell>
        <mxCell id="Lrtluq5l5MD6FJIpUNIz-90" value="" style="html=1;points=[];perimeter=orthogonalPerimeter;container=0;" parent="1" vertex="1">
          <mxGeometry x="363.0799999999999" y="1180" width="15.37" height="30" as="geometry" />
        </mxCell>
        <mxCell id="Lrtluq5l5MD6FJIpUNIz-91" value="alt" style="shape=umlFrame;whiteSpace=wrap;html=1;width=50;height=30;" parent="1" vertex="1">
          <mxGeometry x="1519.9" y="1182.57" width="700" height="330" as="geometry" />
        </mxCell>
        <mxCell id="Lrtluq5l5MD6FJIpUNIz-92" value=":user.php" style="shape=umlLifeline;perimeter=lifelinePerimeter;whiteSpace=wrap;html=1;container=0;collapsible=0;recursiveResize=0;outlineConnect=0;" parent="1" vertex="1">
          <mxGeometry x="2101.15" y="982.5699999999999" width="156.72" height="530" as="geometry" />
        </mxCell>
        <mxCell id="Lrtluq5l5MD6FJIpUNIz-93" value="click &quot;Edit&quot;" style="html=1;verticalAlign=bottom;endArrow=block;rounded=0;elbow=vertical;" parent="1" edge="1">
          <mxGeometry x="-0.0586" y="3" width="80" relative="1" as="geometry">
            <mxPoint x="1499.9" y="1065.57" as="sourcePoint" />
            <mxPoint x="1679.9" y="1065.57" as="targetPoint" />
            <mxPoint as="offset" />
          </mxGeometry>
        </mxCell>
        <mxCell id="Lrtluq5l5MD6FJIpUNIz-94" value="" style="shape=umlLifeline;participant=umlActor;perimeter=lifelinePerimeter;whiteSpace=wrap;html=1;container=0;collapsible=0;recursiveResize=0;verticalAlign=top;spacingTop=36;outlineConnect=0;fontFamily=Helvetica;fontSize=12;fontColor=default;align=center;strokeColor=default;fillColor=default;size=50;" parent="1" vertex="1">
          <mxGeometry x="1445" y="1017.7099999999998" width="46.09" height="494.86" as="geometry" />
        </mxCell>
        <mxCell id="Lrtluq5l5MD6FJIpUNIz-95" value="Organization" style="text;html=1;align=center;verticalAlign=middle;resizable=1;points=[];autosize=1;strokeColor=none;fillColor=none;container=0;movable=1;rotatable=1;deletable=1;editable=1;connectable=1;locked=0;" parent="1" vertex="1">
          <mxGeometry x="1430" y="982.5699999999999" width="90" height="30" as="geometry" />
        </mxCell>
        <mxCell id="Lrtluq5l5MD6FJIpUNIz-96" value=":accountsettings.php" style="shape=umlLifeline;perimeter=lifelinePerimeter;whiteSpace=wrap;html=1;container=0;collapsible=0;recursiveResize=0;outlineConnect=0;" parent="1" vertex="1">
          <mxGeometry x="1589.9" y="982.5699999999999" width="199.75" height="530" as="geometry" />
        </mxCell>
        <mxCell id="Lrtluq5l5MD6FJIpUNIz-97" value="" style="html=1;points=[];perimeter=orthogonalPerimeter;container=0;" parent="1" vertex="1">
          <mxGeometry x="1682.0900000000001" y="1132.57" width="15.37" height="30" as="geometry" />
        </mxCell>
        <mxCell id="Lrtluq5l5MD6FJIpUNIz-98" value="redirect accountsettings.php" style="html=1;verticalAlign=bottom;endArrow=open;dashed=1;endSize=8;rounded=0;elbow=vertical;" parent="1" edge="1">
          <mxGeometry x="0.0035" relative="1" as="geometry">
            <mxPoint x="1939.7324683382917" y="1442.5699568965517" as="sourcePoint" />
            <mxPoint x="1697.462596685083" y="1442.85" as="targetPoint" />
            <mxPoint as="offset" />
            <Array as="points">
              <mxPoint x="1919.7574407139823" y="1442.7586251486325" />
            </Array>
          </mxGeometry>
        </mxCell>
        <mxCell id="Lrtluq5l5MD6FJIpUNIz-99" value="" style="html=1;points=[];perimeter=orthogonalPerimeter;container=0;" parent="1" vertex="1">
          <mxGeometry x="1682.0900000000001" y="1067.3999999999999" width="15.37" height="35.17" as="geometry" />
        </mxCell>
        <mxCell id="Lrtluq5l5MD6FJIpUNIz-100" value="editOrgSite($_POST[&#39;neworgsite&#39;], $userid)" style="html=1;verticalAlign=bottom;endArrow=block;rounded=0;" parent="1" edge="1">
          <mxGeometry x="0.0918" y="13" width="80" relative="1" as="geometry">
            <mxPoint x="1949.9" y="1362.57" as="sourcePoint" />
            <mxPoint x="2169.9" y="1362.57" as="targetPoint" />
            <mxPoint as="offset" />
          </mxGeometry>
        </mxCell>
        <mxCell id="Lrtluq5l5MD6FJIpUNIz-101" value=":editorgsite.php" style="shape=umlLifeline;perimeter=lifelinePerimeter;whiteSpace=wrap;html=1;container=0;collapsible=0;recursiveResize=0;outlineConnect=0;" parent="1" vertex="1">
          <mxGeometry x="1869.9" y="982.5699999999999" width="156.72" height="530" as="geometry" />
        </mxCell>
        <mxCell id="Lrtluq5l5MD6FJIpUNIz-102" value="&lt;font style=&quot;font-size: 14px;&quot;&gt;&lt;b&gt;&lt;u&gt;Edit Organization site&lt;/u&gt;&lt;/b&gt;&lt;/font&gt;" style="text;html=1;align=center;verticalAlign=middle;resizable=0;points=[];autosize=1;strokeColor=none;fillColor=none;" parent="1" vertex="1">
          <mxGeometry x="1755.46" y="932.5699999999999" width="170" height="30" as="geometry" />
        </mxCell>
        <mxCell id="Lrtluq5l5MD6FJIpUNIz-103" value="redirect to&amp;nbsp;editorgsite.php" style="html=1;verticalAlign=bottom;endArrow=block;rounded=0;elbow=vertical;entryX=-0.096;entryY=0.025;entryDx=0;entryDy=0;entryPerimeter=0;" parent="1" target="Lrtluq5l5MD6FJIpUNIz-104" edge="1">
          <mxGeometry x="-0.0586" y="3" width="80" relative="1" as="geometry">
            <mxPoint x="1699.9" y="1102.81" as="sourcePoint" />
            <mxPoint x="1912.3500000000004" y="1102.571950059453" as="targetPoint" />
            <mxPoint as="offset" />
          </mxGeometry>
        </mxCell>
        <mxCell id="Lrtluq5l5MD6FJIpUNIz-104" value="" style="html=1;points=[];perimeter=orthogonalPerimeter;container=0;" parent="1" vertex="1">
          <mxGeometry x="1940.5700000000002" y="1102.57" width="15.37" height="30" as="geometry" />
        </mxCell>
        <mxCell id="Lrtluq5l5MD6FJIpUNIz-105" value="$DisplayForm" style="html=1;verticalAlign=bottom;endArrow=open;dashed=1;endSize=8;rounded=0;elbow=vertical;" parent="1" edge="1">
          <mxGeometry x="0.0017" relative="1" as="geometry">
            <mxPoint x="1953.5024683382917" y="1132.5699568965517" as="sourcePoint" />
            <mxPoint x="1697.46" y="1132.57" as="targetPoint" />
            <mxPoint as="offset" />
            <Array as="points">
              <mxPoint x="1933.5274407139823" y="1132.7586251486325" />
            </Array>
          </mxGeometry>
        </mxCell>
        <mxCell id="Lrtluq5l5MD6FJIpUNIz-106" value="enters new organization website" style="html=1;verticalAlign=bottom;endArrow=block;rounded=0;elbow=vertical;" parent="1" edge="1">
          <mxGeometry x="-0.0586" y="3" width="80" relative="1" as="geometry">
            <mxPoint x="1472.0900000000001" y="1172.57" as="sourcePoint" />
            <mxPoint x="1682.0900000000001" y="1172.57" as="targetPoint" />
            <mxPoint as="offset" />
          </mxGeometry>
        </mxCell>
        <mxCell id="Lrtluq5l5MD6FJIpUNIz-107" value="clicks confirm button" style="html=1;verticalAlign=bottom;endArrow=block;rounded=0;elbow=vertical;" parent="1" edge="1">
          <mxGeometry x="-0.0685" y="-20" width="80" relative="1" as="geometry">
            <mxPoint x="1472.0900000000001" y="1306.98" as="sourcePoint" />
            <mxPoint x="1682.0900000000001" y="1306.98" as="targetPoint" />
            <mxPoint as="offset" />
          </mxGeometry>
        </mxCell>
        <mxCell id="Lrtluq5l5MD6FJIpUNIz-108" value="" style="html=1;points=[];perimeter=orthogonalPerimeter;container=0;" parent="1" vertex="1">
          <mxGeometry x="1682.0900000000001" y="1302.57" width="15.37" height="30" as="geometry" />
        </mxCell>
        <mxCell id="Lrtluq5l5MD6FJIpUNIz-109" value="$_POST[&#39;submit&#39;]" style="html=1;verticalAlign=bottom;endArrow=block;rounded=0;elbow=vertical;entryX=-0.096;entryY=0.025;entryDx=0;entryDy=0;entryPerimeter=0;" parent="1" edge="1">
          <mxGeometry x="-0.0586" y="3" width="80" relative="1" as="geometry">
            <mxPoint x="1701.5700000000002" y="1332.57" as="sourcePoint" />
            <mxPoint x="1940.5700000000002" y="1333.33" as="targetPoint" />
            <mxPoint as="offset" />
          </mxGeometry>
        </mxCell>
        <mxCell id="Lrtluq5l5MD6FJIpUNIz-110" value="" style="html=1;points=[];perimeter=orthogonalPerimeter;container=0;" parent="1" vertex="1">
          <mxGeometry x="1940.5700000000002" y="1332.57" width="15.37" height="30" as="geometry" />
        </mxCell>
        <mxCell id="Lrtluq5l5MD6FJIpUNIz-111" value="clicks cancel button" style="html=1;verticalAlign=bottom;endArrow=block;rounded=0;elbow=vertical;" parent="1" edge="1">
          <mxGeometry x="0.4077" width="80" relative="1" as="geometry">
            <mxPoint x="1472.0900000000001" y="1222.57" as="sourcePoint" />
            <mxPoint x="1682.0900000000001" y="1222.57" as="targetPoint" />
            <mxPoint as="offset" />
          </mxGeometry>
        </mxCell>
        <mxCell id="Lrtluq5l5MD6FJIpUNIz-113" value="" style="html=1;points=[];perimeter=orthogonalPerimeter;container=0;" parent="1" vertex="1">
          <mxGeometry x="2171.83" y="1362.57" width="15.37" height="40" as="geometry" />
        </mxCell>
        <mxCell id="Lrtluq5l5MD6FJIpUNIz-114" value="" style="html=1;points=[];perimeter=orthogonalPerimeter;container=0;" parent="1" vertex="1">
          <mxGeometry x="1940.5700000000002" y="1402.57" width="15.37" height="40" as="geometry" />
        </mxCell>
        <mxCell id="Lrtluq5l5MD6FJIpUNIz-115" value="$_SESSION[&#39;successStatus&#39;]" style="html=1;verticalAlign=bottom;endArrow=open;dashed=1;endSize=8;rounded=0;elbow=vertical;exitX=-0.256;exitY=1.005;exitDx=0;exitDy=0;exitPerimeter=0;" parent="1" source="Lrtluq5l5MD6FJIpUNIz-113" target="Lrtluq5l5MD6FJIpUNIz-114" edge="1">
          <mxGeometry x="0.012" relative="1" as="geometry">
            <mxPoint x="2162.09" y="1402.57" as="sourcePoint" />
            <mxPoint x="1979.9" y="1402.57" as="targetPoint" />
            <mxPoint as="offset" />
            <Array as="points">
              <mxPoint x="2048.819365079365" y="1402.9223424494648" />
            </Array>
          </mxGeometry>
        </mxCell>
        <mxCell id="Lrtluq5l5MD6FJIpUNIz-116" value="" style="html=1;points=[];perimeter=orthogonalPerimeter;container=0;" parent="1" vertex="1">
          <mxGeometry x="1682.0900000000001" y="1442.57" width="15.37" height="40" as="geometry" />
        </mxCell>
        <mxCell id="Lrtluq5l5MD6FJIpUNIz-117" value="User Information Successfully Updated" style="text;whiteSpace=wrap;html=1;" parent="1" vertex="1">
          <mxGeometry x="1704.83" y="1442.57" width="240" height="40" as="geometry" />
        </mxCell>
        <mxCell id="Lrtluq5l5MD6FJIpUNIz-118" value="" style="line;strokeWidth=1;fillColor=none;align=left;verticalAlign=middle;spacingTop=-1;spacingLeft=3;spacingRight=3;rotatable=0;labelPosition=right;points=[];portConstraint=eastwest;strokeColor=inherit;" parent="1" vertex="1">
          <mxGeometry x="1520" y="1272.57" width="699.9" height="8" as="geometry" />
        </mxCell>
        <mxCell id="Lrtluq5l5MD6FJIpUNIz-119" value="" style="html=1;points=[];perimeter=orthogonalPerimeter;container=0;" parent="1" vertex="1">
          <mxGeometry x="1682.0900000000001" y="1222.57" width="15.37" height="30" as="geometry" />
        </mxCell>
        <mxCell id="Lrtluq5l5MD6FJIpUNIz-120" value="$userid)" style="text;whiteSpace=wrap;html=1;" parent="1" vertex="1">
          <mxGeometry x="731.25" y="1320" width="70" height="32.43" as="geometry" />
        </mxCell>
        <mxCell id="UO87qjCkqBrKxogzKQhg-2" value="redirect to&amp;nbsp;accountsettings.php" style="html=1;verticalAlign=bottom;endArrow=open;dashed=1;endSize=8;rounded=0;elbow=vertical;exitX=-0.256;exitY=1.005;exitDx=0;exitDy=0;exitPerimeter=0;" edge="1" parent="1">
          <mxGeometry x="0.012" relative="1" as="geometry">
            <mxPoint x="382.19000000000005" y="420" as="sourcePoint" />
            <mxPoint x="170.19000000000005" y="420" as="targetPoint" />
            <mxPoint as="offset" />
            <Array as="points">
              <mxPoint x="263.10936507936503" y="420.3523424494649" />
            </Array>
          </mxGeometry>
        </mxCell>
        <mxCell id="UO87qjCkqBrKxogzKQhg-3" value="redirect to&amp;nbsp;accountsettings.php" style="html=1;verticalAlign=bottom;endArrow=open;dashed=1;endSize=8;rounded=0;elbow=vertical;exitX=-0.256;exitY=1.005;exitDx=0;exitDy=0;exitPerimeter=0;" edge="1" parent="1">
          <mxGeometry x="0.012" relative="1" as="geometry">
            <mxPoint x="1598.72" y="507.57" as="sourcePoint" />
            <mxPoint x="1386.72" y="507.57" as="targetPoint" />
            <mxPoint as="offset" />
            <Array as="points">
              <mxPoint x="1479.639365079365" y="507.9223424494649" />
            </Array>
          </mxGeometry>
        </mxCell>
        <mxCell id="UO87qjCkqBrKxogzKQhg-4" value="redirect to&amp;nbsp;accountsettings.php" style="html=1;verticalAlign=bottom;endArrow=open;dashed=1;endSize=8;rounded=0;elbow=vertical;exitX=-0.256;exitY=1.005;exitDx=0;exitDy=0;exitPerimeter=0;" edge="1" parent="1">
          <mxGeometry x="0.012" relative="1" as="geometry">
            <mxPoint x="1682.09" y="1251.39" as="sourcePoint" />
            <mxPoint x="1470.09" y="1251.39" as="targetPoint" />
            <mxPoint as="offset" />
            <Array as="points">
              <mxPoint x="1563.009365079365" y="1251.742342449465" />
            </Array>
          </mxGeometry>
        </mxCell>
        <mxCell id="UO87qjCkqBrKxogzKQhg-5" value="redirect to&amp;nbsp;accountsettings.php" style="html=1;verticalAlign=bottom;endArrow=open;dashed=1;endSize=8;rounded=0;elbow=vertical;exitX=-0.256;exitY=1.005;exitDx=0;exitDy=0;exitPerimeter=0;" edge="1" parent="1">
          <mxGeometry x="0.012" relative="1" as="geometry">
            <mxPoint x="363.08000000000004" y="1210" as="sourcePoint" />
            <mxPoint x="151.08" y="1210" as="targetPoint" />
            <mxPoint as="offset" />
            <Array as="points">
              <mxPoint x="243.999365079365" y="1210.352342449465" />
            </Array>
          </mxGeometry>
        </mxCell>
      </root>
    </mxGraphModel>
  </diagram>
</mxfile>
